<?xml version="1.0" encoding="UTF-8" standalone="no"?>
<!-- Created with Inkscape (http://www.inkscape.org/) -->

<svg
   xmlns:dc="http://purl.org/dc/elements/1.1/"
   xmlns:cc="http://creativecommons.org/ns#"
   xmlns:rdf="http://www.w3.org/1999/02/22-rdf-syntax-ns#"
   xmlns:svg="http://www.w3.org/2000/svg"
   xmlns="http://www.w3.org/2000/svg"
   xmlns:sodipodi="http://sodipodi.sourceforge.net/DTD/sodipodi-0.dtd"
   xmlns:inkscape="http://www.inkscape.org/namespaces/inkscape"
   width="855.721" height="163.794" class="img-fluid" viewBox="-75 0 350 50"
   id="svg4004"
   version="1.1"
   inkscape:version="0.91 r13725"
   sodipodi:docname="flightglobal.svg">
  <defs
     id="defs4006">


























</defs>
  <sodipodi:namedview
     id="base"
     pagecolor="#ffffff"
     bordercolor="#666666"
     borderopacity="1.0"
     inkscape:pageopacity="0.0"
     inkscape:pageshadow="2"
     inkscape:zoom="4.525"
     inkscape:cx="100.5"
     inkscape:cy="25.75"
     inkscape:document-units="px"
     inkscape:current-layer="layer1"
     showgrid="false"
     units="px"
     inkscape:window-width="1280"
     inkscape:window-height="744"
     inkscape:window-x="-4"
     inkscape:window-y="-4"
     inkscape:window-maximized="1" />
  <metadata
     id="metadata4009">
    <rdf:RDF>
      <cc:Work
         rdf:about="">
        <dc:format>image/svg+xml</dc:format>
        <dc:type
           rdf:resource="http://purl.org/dc/dcmitype/StillImage" />
        <dc:title></dc:title>
      </cc:Work>
    </rdf:RDF>
  </metadata>
  <g
     inkscape:label="Layer 1"
     inkscape:groupmode="layer"
     id="layer1"
     transform="translate(0,-1000.8622)">
    <g
       id="g4364"
       transform="translate(-339.5,-244.3079)">
      <polygon
         transform="translate(260,1245.4336)"
         style="fill:#40b4e5"
         points="109.748,4.835 109.748,13.035 114.412,13.035 114.412,4.835 114.412,0.172 101.549,0.172 101.549,4.835 "
         id="polygon4047" />
      <polygon
         transform="translate(260,1245.4336)"
         style="fill:#262729"
         points="80,41.494 84.674,41.494 84.674,30.28 97.813,30.28 97.813,25.607 84.674,25.607 84.674,16.466 97.803,16.466 97.803,11.793 80,11.806 "
         id="polygon4049" />
      <g
         transform="translate(260,1245.4336)"
         id="g4051">
		<path
   style="fill:#262729"
   inkscape:connector-curvature="0"
   d="m 200.164,39.625 c -3.443,1.839 -7.293,2.759 -11.547,2.759 -2.156,0 -4.135,-0.349 -5.934,-1.045 -1.801,-0.695 -3.35,-1.681 -4.65,-2.955 -1.301,-1.275 -2.319,-2.805 -3.055,-4.592 -0.736,-1.787 -1.104,-3.771 -1.104,-5.952 0,-2.233 0.368,-4.263 1.104,-6.09 0.735,-1.825 1.754,-3.382 3.055,-4.67 1.301,-1.287 2.85,-2.279 4.65,-2.976 1.799,-0.696 3.777,-1.045 5.934,-1.045 2.127,0 4.123,0.256 5.99,0.769 1.865,0.513 3.533,1.426 5.006,2.739 l -3.666,3.705 c -0.893,-0.867 -1.977,-1.537 -3.252,-2.01 -1.275,-0.474 -2.621,-0.71 -4.041,-0.71 -1.443,0 -2.752,0.257 -3.92,0.769 -1.17,0.513 -2.176,1.222 -3.016,2.129 -0.842,0.906 -1.492,1.964 -1.951,3.173 -0.461,1.209 -0.689,2.509 -0.689,3.901 0,1.498 0.229,2.877 0.689,4.139 0.459,1.262 1.109,2.353 1.951,3.271 0.84,0.92 1.846,1.643 3.016,2.167 1.168,0.527 2.477,0.789 3.92,0.789 1.264,0 2.451,-0.119 3.568,-0.354 1.117,-0.236 2.107,-0.604 2.975,-1.104 l 0,-6.582 -5.715,0 0,-4.492 10.682,0 0,14.267 z"
   id="path4053" />

		<path
   style="fill:#262729"
   inkscape:connector-curvature="0"
   d="m 203.617,11.877 4.73,0 0,29.797 -4.73,0 0,-29.797 z"
   id="path4055" />

		<path
   style="fill:#262729"
   inkscape:connector-curvature="0"
   d="m 210.717,32.215 c 0,-1.498 0.268,-2.857 0.807,-4.079 0.539,-1.222 1.268,-2.267 2.189,-3.134 0.918,-0.867 2.01,-1.537 3.271,-2.01 1.26,-0.473 2.6,-0.71 4.02,-0.71 1.418,0 2.758,0.237 4.02,0.71 1.262,0.473 2.354,1.143 3.271,2.01 0.92,0.867 1.648,1.912 2.188,3.134 0.54,1.222 0.809,2.581 0.809,4.079 0,1.498 -0.27,2.857 -0.809,4.08 -0.539,1.221 -1.268,2.266 -2.188,3.133 -0.918,0.867 -2.01,1.537 -3.271,2.01 -1.261,0.473 -2.602,0.71 -4.02,0.71 -1.42,0 -2.76,-0.237 -4.02,-0.71 -1.262,-0.473 -2.354,-1.143 -3.271,-2.01 -0.922,-0.867 -1.65,-1.912 -2.189,-3.133 -0.54,-1.223 -0.807,-2.582 -0.807,-4.08 z m 4.728,0 c 0,0.736 0.125,1.445 0.375,2.129 0.25,0.684 0.619,1.287 1.104,1.812 0.486,0.526 1.07,0.946 1.754,1.262 0.684,0.316 1.457,0.474 2.326,0.474 0.867,0 1.641,-0.158 2.326,-0.474 0.682,-0.315 1.266,-0.735 1.754,-1.262 0.484,-0.524 0.852,-1.128 1.102,-1.812 0.25,-0.684 0.375,-1.393 0.375,-2.129 0,-0.735 -0.125,-1.444 -0.375,-2.128 -0.25,-0.684 -0.617,-1.288 -1.102,-1.813 -0.488,-0.525 -1.072,-0.945 -1.754,-1.262 -0.686,-0.314 -1.459,-0.473 -2.326,-0.473 -0.869,0 -1.643,0.158 -2.326,0.473 -0.684,0.316 -1.268,0.736 -1.754,1.262 -0.484,0.525 -0.854,1.13 -1.104,1.813 -0.25,0.683 -0.375,1.392 -0.375,2.128 z"
   id="path4057" />

		<path
   style="fill:#262729"
   inkscape:connector-curvature="0"
   d="m 233.508,11.877 4.73,0 0,13.283 0.119,0 c 0.234,-0.315 0.537,-0.637 0.904,-0.966 0.369,-0.329 0.816,-0.637 1.34,-0.926 0.527,-0.29 1.131,-0.525 1.814,-0.71 0.684,-0.184 1.471,-0.276 2.363,-0.276 1.342,0 2.576,0.257 3.707,0.769 1.129,0.513 2.094,1.216 2.896,2.109 0.802,0.893 1.424,1.944 1.871,3.152 0.447,1.209 0.67,2.51 0.67,3.902 0,1.394 -0.209,2.694 -0.631,3.902 -0.42,1.209 -1.037,2.26 -1.852,3.152 -0.814,0.895 -1.799,1.597 -2.955,2.109 -1.158,0.513 -2.459,0.769 -3.902,0.769 -1.34,0 -2.588,-0.264 -3.744,-0.788 -1.158,-0.525 -2.076,-1.366 -2.76,-2.523 l -0.078,0 0,2.838 -4.494,0 0,-29.796 z m 15.687,20.338 c 0,-0.735 -0.125,-1.444 -0.375,-2.128 -0.25,-0.684 -0.617,-1.288 -1.104,-1.813 -0.487,-0.525 -1.07,-0.945 -1.754,-1.262 -0.684,-0.314 -1.457,-0.473 -2.324,-0.473 -0.869,0 -1.643,0.158 -2.326,0.473 -0.684,0.316 -1.268,0.736 -1.754,1.262 -0.486,0.526 -0.854,1.13 -1.104,1.813 -0.25,0.683 -0.375,1.393 -0.375,2.128 0,0.736 0.125,1.445 0.375,2.129 0.25,0.684 0.617,1.287 1.104,1.812 0.486,0.526 1.07,0.946 1.754,1.262 0.684,0.316 1.457,0.474 2.326,0.474 0.867,0 1.641,-0.158 2.324,-0.474 0.683,-0.316 1.268,-0.735 1.754,-1.262 0.486,-0.524 0.854,-1.128 1.104,-1.812 0.25,-0.684 0.375,-1.393 0.375,-2.129 z"
   id="path4059" />

		<path
   style="fill:#262729"
   inkscape:connector-curvature="0"
   d="m 267.893,39.072 -0.119,0 c -0.682,1.078 -1.549,1.86 -2.6,2.345 -1.051,0.487 -2.207,0.73 -3.469,0.73 -0.867,0 -1.715,-0.118 -2.543,-0.355 -0.828,-0.235 -1.563,-0.591 -2.207,-1.063 -0.643,-0.474 -1.162,-1.065 -1.557,-1.774 -0.395,-0.71 -0.59,-1.537 -0.59,-2.482 0,-1.025 0.184,-1.898 0.551,-2.621 0.369,-0.723 0.859,-1.326 1.477,-1.813 0.619,-0.486 1.334,-0.874 2.15,-1.163 0.813,-0.289 1.66,-0.506 2.543,-0.65 0.879,-0.145 1.766,-0.237 2.658,-0.275 0.895,-0.04 1.734,-0.06 2.523,-0.06 l 1.182,0 0,-0.513 c 0,-1.182 -0.408,-2.069 -1.221,-2.66 -0.816,-0.592 -1.852,-0.887 -3.115,-0.887 -0.998,0 -1.93,0.177 -2.799,0.532 -0.865,0.354 -1.613,0.834 -2.246,1.438 l -2.482,-2.483 c 1.051,-1.077 2.279,-1.853 3.686,-2.325 1.407,-0.472 2.857,-0.71 4.355,-0.71 1.34,0 2.471,0.151 3.391,0.454 0.918,0.302 1.68,0.689 2.285,1.162 0.604,0.473 1.07,1.019 1.398,1.636 0.328,0.617 0.564,1.242 0.709,1.872 0.145,0.631 0.23,1.241 0.256,1.833 0.027,0.591 0.041,1.11 0.041,1.557 l 0,10.878 -4.258,0 0,-2.603 z m -0.274,-5.872 -0.986,0 c -0.658,0 -1.395,0.026 -2.209,0.079 -0.814,0.053 -1.582,0.178 -2.305,0.374 -0.725,0.197 -1.334,0.486 -1.832,0.867 -0.5,0.382 -0.75,0.914 -0.75,1.597 0,0.446 0.098,0.82 0.295,1.122 0.199,0.304 0.455,0.56 0.771,0.77 0.313,0.211 0.67,0.361 1.063,0.453 0.393,0.093 0.789,0.138 1.182,0.138 1.629,0 2.832,-0.387 3.607,-1.162 0.773,-0.774 1.164,-1.833 1.164,-3.173 l 0,-1.065 z"
   id="path4061" />

		<path
   style="fill:#262729"
   inkscape:connector-curvature="0"
   d="m 275.271,11.877 4.729,0 0,29.797 -4.729,0 0,-29.797 z"
   id="path4063" />

	</g>
      <rect
         style="fill:#262729"
         x="360.478"
         y="1257.2496"
         width="4.6630001"
         height="29.657"
         id="rect4065" />
      <rect
         style="fill:#262729"
         x="368.92801"
         y="1268.2526"
         width="4.664"
         height="18.653999"
         id="rect4067" />
      <path
         style="fill:#262729"
         inkscape:connector-curvature="0"
         d="m 391.996,1271.0506 -0.078,0 c -0.674,-1.139 -1.58,-1.968 -2.721,-2.486 -1.14,-0.518 -2.369,-0.777 -3.691,-0.777 -1.451,0 -2.739,0.252 -3.865,0.758 -1.128,0.505 -2.094,1.199 -2.896,2.08 -0.803,0.88 -1.412,1.917 -1.826,3.108 -0.414,1.191 -0.621,2.475 -0.621,3.847 0,1.322 0.219,2.565 0.66,3.731 0.439,1.166 1.068,2.175 1.885,3.031 0.816,0.854 1.793,1.534 2.934,2.04 1.141,0.504 2.409,0.757 3.81,0.757 1.165,0 2.304,-0.227 3.419,-0.68 1.113,-0.454 2.008,-1.134 2.682,-2.039 l 0.078,0 0,1.359 c 0,0.932 -0.098,1.78 -0.292,2.546 -0.194,0.764 -0.519,1.418 -0.972,1.962 -0.453,0.545 -1.063,0.972 -1.826,1.281 -0.766,0.313 -1.704,0.466 -2.817,0.466 -1.322,0 -2.487,-0.23 -3.497,-0.696 -1.012,-0.469 -1.982,-1.129 -2.915,-1.983 l -2.798,3.809 c 1.32,1.166 2.76,1.97 4.313,2.408 1.554,0.441 3.198,0.662 4.935,0.662 1.813,0 3.381,-0.261 4.703,-0.778 1.32,-0.519 2.415,-1.248 3.283,-2.195 0.867,-0.945 1.51,-2.099 1.924,-3.46 0.414,-1.359 0.621,-2.881 0.621,-4.565 l 0,-16.984 -4.43,0 0,2.798 z m -0.389,8.59 c -0.26,0.673 -0.627,1.25 -1.107,1.729 -0.479,0.479 -1.063,0.861 -1.748,1.146 -0.688,0.285 -1.458,0.429 -2.313,0.429 -0.777,0 -1.504,-0.144 -2.177,-0.429 -0.675,-0.284 -1.257,-0.672 -1.749,-1.165 -0.492,-0.492 -0.873,-1.062 -1.146,-1.709 -0.271,-0.647 -0.407,-1.347 -0.407,-2.099 0,-0.828 0.136,-1.588 0.407,-2.274 0.273,-0.686 0.647,-1.269 1.127,-1.748 0.48,-0.479 1.057,-0.854 1.73,-1.127 0.673,-0.273 1.424,-0.408 2.253,-0.408 1.71,0 3.056,0.506 4.042,1.515 0.984,1.012 1.477,2.332 1.477,3.964 0,0.776 -0.13,1.501 -0.389,2.176 z"
         id="path4069" />
      <path
         style="fill:#262729"
         inkscape:connector-curvature="0"
         d="m 414.66,1270.0416 c -0.543,-0.675 -1.25,-1.218 -2.117,-1.633 -0.869,-0.414 -1.924,-0.622 -3.168,-0.622 -1.451,0 -2.636,0.317 -3.556,0.952 -0.921,0.636 -1.562,1.34 -1.923,2.117 l -0.078,0 0,-13.604 -9.29,-10e-4 0,4.646 4.626,0 0,25.01 4.664,0 0,-10.181 c 0,-0.622 0.078,-1.218 0.232,-1.788 0.156,-0.569 0.408,-1.075 0.758,-1.516 0.35,-0.441 0.791,-0.789 1.322,-1.049 0.53,-0.259 1.185,-0.389 1.963,-0.389 0.802,0 1.437,0.188 1.902,0.563 0.467,0.376 0.811,0.843 1.031,1.399 0.219,0.557 0.355,1.152 0.408,1.787 0.051,0.636 0.076,1.211 0.076,1.729 l 0,9.444 4.664,0 0,-11.774 c 0,-0.958 -0.115,-1.878 -0.35,-2.759 -0.231,-0.879 -0.621,-1.657 -1.164,-2.331 z"
         id="path4071" />
      <path
         style="fill:#262729"
         inkscape:connector-curvature="0"
         d="m 431.941,1272.2186 0,-3.963 -5.129,0 0,-5.41 -4.664,0 0,5.41 -5.378,0 c 0.87,1.134 1.476,2.486 1.756,3.963 l 3.622,0 0,8.55 c 0,1.088 0.094,2.052 0.265,2.876 0.155,0.824 0.467,1.523 0.933,2.083 0.451,0.56 1.072,0.963 1.865,1.244 0.777,0.264 1.803,0.403 3.047,0.403 0.545,0 1.166,-0.047 1.881,-0.14 0.715,-0.094 1.322,-0.249 1.803,-0.482 l 0,-3.933 c -0.279,0.218 -0.668,0.358 -1.166,0.451 -0.481,0.092 -0.947,0.14 -1.352,0.14 -1.041,0 -1.725,-0.28 -2.083,-0.823 -0.343,-0.545 -0.528,-1.275 -0.528,-2.208 l 0,-8.161 5.128,0 z"
         id="path4073" />
    </g>
  </g>
</svg>
